# xmcd CD database file
#
# Track frame offsets:
#	150
#	5140
#	23972
#	43912
#	59865
#	79128
#	93255
#	117189
#	137166
#	169744
#	194566
#	224550
#	246514
#	267925
#	282984
#	308547
#	331857
#
# Disc length: 4684 seconds
#
# Revision: 0
# Processed by: cddbd v1.5.2PL0 Copyright (c) Steve Scherf et al.
# Submitted via: CDex 1.70beta2
#
DISCID=06124a11
DTITLE=Vargas Blues Band - El Alma
DYEAR=2003
DGENRE=Blues
TTITLE0=El Alma
TTITLE1=Illegally
TTITLE2=Chill Out (Sácalo)
TTITLE3=Vivir Al Alba
TTITLE4=Sangere Española
TTITLE5=Amapola Negra
TTITLE6=Do You Believe In Love
TTITLE7=Madrid Memphis
TTITLE8=Ridin' High
TTITLE9=Blues Latino
TTITLE10=Make Sweet Love 2 U
TTITLE11=Knocked Out With The Blues
TTITLE12=Take Me Down South
TTITLE13=Messin' With The Kid
TTITLE14=Del Sur
TTITLE15=Black Cat Boogie
TTITLE16=New York City Blues
EXTD=YEAR: 2003
EXTT0=
EXTT1=
EXTT2=
EXTT3=
EXTT4=
EXTT5=
EXTT6=
EXTT7=
EXTT8=
EXTT9=
EXTT10=
EXTT11=
EXTT12=
EXTT13=
EXTT14=
EXTT15=
EXTT16=
PLAYORDER=
